<svg xmlns="http://www.w3.org/2000/svg" viewBox="0 0 64 64" width="64" height="64">
  <defs>
    <linearGradient id="g" x1="0" y1="0" x2="1" y2="1">
      <stop offset="0" stop-color="#5b2a86"/>
      <stop offset="1" stop-color="#f15a24"/>
    </linearGradient>
  </defs>
  <rect rx="12" ry="12" x="2" y="2" width="60" height="60" fill="url(#g)"/>
  <!-- Bell -->
  <g transform="translate(10,6)" fill="#fff">
    <path d="M22 6a6 6 0 0 0-6 6v2.2c-5.5 3.2-8 8.3-8 15.8v4l-2 3a2 2 0 0 0 1.7 3h28.6a2 2 0 0 0 1.7-3l-2-3v-4c0-7.5-2.5-12.6-8-15.8V12a6 6 0 0 0-6-6z"/>
    <circle cx="22" cy="47" r="3.5" fill="#ffd766"/>
  </g>
  <!-- Runner (simplified) -->
  <g transform="translate(34,32) scale(0.7)" fill="#ffd766">
    <circle cx="0" cy="-10" r="3.2"/>
    <path d="M0-6 l4 6 l-3 5 l-6 -6 z" />
    <path d="M-2 0 l-8 6 l3 3 l7-5 z" />
    <path d="M3 5 l6 7 l3-2 l-5-7 z" />
  </g>
</svg>