<svg xmlns="http://www.w3.org/2000/svg" width="1200" height="630" viewBox="0 0 1200 630">
  <defs>
    <linearGradient id="bg" x1="0" y1="0" x2="1" y2="1">
      <stop offset="0" stop-color="#4b2c7a"/>
      <stop offset="1" stop-color="#f15a24"/>
    </linearGradient>
    <filter id="shadow" x="-20%" y="-20%" width="140%" height="140%">
      <feDropShadow dx="0" dy="6" stdDeviation="10" flood-color="#000" flood-opacity="0.3"/>
    </filter>
  </defs>
  <rect width="1200" height="630" fill="url(#bg)"/>
  <!-- Large bell -->
  <g transform="translate(200,150) scale(4)" fill="#ffffff" filter="url(#shadow)" opacity="0.95">
    <path d="M22 6a6 6 0 0 0-6 6v2.2c-5.5 3.2-8 8.3-8 15.8v4l-2 3a2 2 0 0 0 1.7 3h28.6a2 2 0 0 0 1.7-3l-2-3v-4c0-7.5-2.5-12.6-8-15.8V12a6 6 0 0 0-6-6z"/>
    <circle cx="22" cy="47" r="3.5" fill="#ffd766"/>
  </g>
  <!-- Runner silhouette -->
  <g transform="translate(720,260) scale(8)" fill="#ffd766" filter="url(#shadow)">
    <circle cx="0" cy="-8" r="2.6"/>
    <path d="M0-5 l4 5 l-2.5 4 l-5.5 -5 z" />
    <path d="M-1.5 -1 l-6 4.5 l2.5 2 l5-4 z" />
    <path d="M2 3 l5 6 l2.5-1.5 l-4.5-6 z" />
  </g>
  <!-- Text -->
  <g font-family="system-ui, -apple-system, Segoe UI, Roboto, Ubuntu, Cantarell, 'Helvetica Neue', Arial, 'Noto Sans', 'Liberation Sans', sans-serif">
    <text x="200" y="460" font-size="72" fill="#ffffff" font-weight="700" letter-spacing="1">MN Taco Bell 25K</text>
    <text x="200" y="520" font-size="36" fill="#ffe9b3">Official Site • 2025</text>
  </g>
</svg>